<svg width="30" height="25" viewBox="0 0 30 25" fill="none" xmlns="http://www.w3.org/2000/svg">
<path d="M3.70997 24.1666C2.90789 24.1666 2.21518 23.8871 1.63185 23.328C1.07282 22.7447 0.793304 22.052 0.793304 21.2499V3.74992C0.793304 2.94784 1.07282 2.26728 1.63185 1.70825C2.21518 1.12492 2.90789 0.833252 3.70997 0.833252H27.0433C27.8454 0.833252 28.5259 1.12492 29.085 1.70825C29.6683 2.26728 29.96 2.94784 29.96 3.74992V21.2499C29.96 22.052 29.6683 22.7447 29.085 23.328C28.5259 23.8871 27.8454 24.1666 27.0433 24.1666H3.70997ZM15.3766 13.9583L27.0433 6.66659V3.74992L15.3766 11.0416L3.70997 3.74992V6.66659L15.3766 13.9583Z" fill="#1D1B20"/>
</svg>
