<svg width="64" height="68" viewBox="0 0 64 68" fill="none" xmlns="http://www.w3.org/2000/svg">
<g clip-path="url(#clip0_12_27)">
<path d="M53.8846 0.649292H10.2692C5.10749 0.649292 0.923077 5.13024 0.923077 10.6578V57.364C0.923077 62.8915 5.10749 67.3725 10.2692 67.3725H53.8846C59.0464 67.3725 63.2308 62.8915 63.2308 57.364V10.6578C63.2308 5.13024 59.0464 0.649292 53.8846 0.649292Z" fill="#F7DF1E"/>
<path d="M40.3522 48.8672C41.5691 51.0826 43.2728 52.6464 46.0718 52.6464C48.5057 52.6464 50.0877 51.3432 50.0877 49.5188C50.0877 47.4337 48.5057 46.6518 45.8284 45.3486L44.3681 44.697C40.1088 42.7422 37.3098 40.3965 37.3098 35.314C37.3098 30.6226 40.5956 26.9736 45.8284 26.9736C49.601 26.9736 52.2782 28.4071 54.1037 32.0561L49.601 35.1837C48.6274 33.2289 47.5322 32.447 45.8284 32.447C44.1247 32.447 43.0294 33.6199 43.0294 35.1837C43.0294 37.0082 44.1247 37.7901 46.6803 38.963L48.1406 39.6146C53.1301 41.9603 55.9291 44.1757 55.9291 49.5188C55.9291 55.1225 51.7915 58.2501 46.1935 58.2501C40.7172 58.2501 37.1881 55.5134 35.4844 51.8645L40.3522 48.8672ZM19.6641 49.3885C20.6376 51.0826 21.3678 52.6464 23.4366 52.6464C25.3837 52.6464 26.6007 51.8645 26.6007 48.7369V27.104H32.442V48.4762C32.442 54.9922 28.9129 57.8592 23.68 57.8592C18.9339 57.8592 16.2566 55.2528 14.918 52.1252L19.6641 49.3885Z" fill="black"/>
</g>
<defs>
<clipPath id="clip0_12_27">
<rect width="62.3077" height="66.7232" fill="white" transform="translate(0.923077 0.649292)"/>
</clipPath>
</defs>
</svg>
