<?xml version="1.0" encoding="UTF-8"?>
<svg xmlns="http://www.w3.org/2000/svg" version="1.1" viewBox="0 0 612 612">
  <defs>
    <style>
      .cls-1 {
        fill: #fc0;
      }

      .cls-2 {
        fill: #063;
      }
    </style>
  </defs>
  <!-- Generator: Adobe Illustrator 28.7.1, SVG Export Plug-In . SVG Version: 1.2.0 Build 142)  -->
  <g>
    <g id="Layer_1">
      <g>
        <path class="cls-2" d="M62.67,427.69h16.1v68.04c0,12.36,2.25,21.5,6.75,27.44,4.5,5.93,11.35,8.9,20.57,8.9s16.34-3.18,21.05-9.55c4.71-6.37,7.07-15.78,7.07-28.25v-66.58h15.04v66.9c0,16.91-3.63,29.6-10.89,38.08-7.26,8.48-18.18,12.72-32.76,12.72s-24.77-4.15-32.03-12.44c-7.26-8.29-10.89-20.54-10.89-36.74v-68.53Z"/>
        <path class="cls-2" d="M180.17,427.69h59.75v12.6h-43.57v36.99h41.78v13.01h-41.78v52.92h-16.18v-115.51Z"/>
        <path class="cls-2" d="M292.36,427.69h19.67l45.28,115.51h-17.48l-11.14-29.67h-54.95l-11.14,29.67h-16.34l46.09-115.51ZM301.87,441.83l-22.92,58.77h45.11l-22.19-58.77Z"/>
        <path class="cls-2" d="M370.32,427.69h30.97c12.52,0,22.19,2.55,29.02,7.64,6.83,5.09,10.24,12.25,10.24,21.46,0,6.4-1.82,11.8-5.45,16.22-3.63,4.42-8.91,7.55-15.85,9.39,8.02,1.95,14.13,5.35,18.33,10.2,4.2,4.85,6.3,10.96,6.3,18.33,0,10.24-3.69,18.18-11.05,23.82-7.37,5.64-17.83,8.45-31.38,8.45h-31.13v-115.51ZM386.34,440.29v36.82h11.79c8.34,0,14.74-1.63,19.18-4.88,4.44-3.25,6.67-7.88,6.67-13.9s-2.09-10.32-6.26-13.41c-4.17-3.09-10.19-4.63-18.05-4.63h-13.33ZM386.34,489.63v40.4h12.27c9.37,0,16.46-1.73,21.26-5.2,4.8-3.47,7.19-8.56,7.19-15.28s-2.22-11.51-6.67-14.88c-4.44-3.36-11.03-5.04-19.75-5.04h-14.31Z"/>
        <path class="cls-2" d="M549.33,431.83l-.65,13.98c-4.44-1.84-8.79-3.22-13.05-4.15-4.25-.92-8.58-1.38-12.97-1.38-13.87,0-24.89,4.05-33.04,12.15-8.16,8.1-12.23,19.04-12.23,32.8s4.06,24.87,12.19,32.84c8.13,7.97,19.21,11.95,33.25,11.95,4.44,0,8.78-.42,13.01-1.26,4.23-.84,8.4-2.07,12.52-3.7l.49,14.47c-4.01,1.3-8.29,2.29-12.84,2.97-4.55.68-9.38,1.02-14.47,1.02-18.91,0-33.83-5.13-44.75-15.4-10.92-10.27-16.38-24.26-16.38-41.99s5.57-32.22,16.71-42.84c11.14-10.62,26.11-15.93,44.91-15.93,5.04,0,9.85.37,14.43,1.1,4.58.73,8.87,1.86,12.88,3.37Z"/>
        <path class="cls-2" d="M231.63,108.49c-9.42,16.33-12.73,34.5-10.62,51.87l19.65,11.35c-5.9-17.59-4.53-37.52,5.47-54.85,18.5-32.05,59.46-43.02,91.52-24.52,32.04,18.5,43.02,59.47,24.52,91.52-10,17.32-26.58,28.49-44.76,32.17l19.65,11.34c16.1-6.87,30.19-18.82,39.62-35.14,23.12-40.06,9.39-91.27-30.65-114.38-40.05-23.13-91.26-9.41-114.39,30.64"/>
        <path class="cls-2" d="M186.92,353.4c40.05,23.14,91.27,9.41,114.39-30.64,9.42-16.32,12.72-34.5,10.62-51.88l-19.65-11.34c5.9,17.58,4.53,37.52-5.47,54.86-18.5,32.04-59.47,43.02-91.52,24.52-32.04-18.5-43.01-59.46-24.52-91.52,10.01-17.32,26.59-28.49,44.77-32.16l-19.64-11.35c-16.1,6.86-30.2,18.81-39.62,35.14-23.13,40.05-9.4,91.27,30.64,114.38"/>
        <path class="cls-2" d="M390.86,214.87l8.81-15.26c-27.22-6.76-56.19.67-76.78,19.59l15.4,8.88c14.83-11.56,33.99-16.39,52.57-13.21M437.55,314.39c-18.5,32.05-59.47,43.02-91.52,24.53-24.34-14.07-36.53-41.1-32.85-67.33l-15.4-8.9c-7.75,34.76,7.42,71.98,39.88,90.73,40.05,23.12,91.27,9.4,114.39-30.65,18.4-31.86,13.47-70.77-9.46-97l-8.99,15.56c15.19,20.77,17.64,49.36,3.95,73.07"/>
        <path class="cls-1" d="M313.22,246.48l-2.48-1.44-137.04-79.13c8.75,10.27,11.96,22.35,7.71,29.59l131.57,75.99c.6-4.15,1.6-8.28,3-12.34.28-.78.56-1.56.86-2.34.18-.75.28-1.52.28-2.32,0-3.25-1.54-6.15-3.91-8"/>
        <path class="cls-1" d="M156.72,123.22c-5.69,10.07.1,22.72,9.27,32.42l148.11,85.54.54.31c1.4.74,3.01,1.16,4.72,1.16,3.08,0,5.83-1.37,7.7-3.54.18-.23.37-.47.56-.71,3.2-3.89,6.79-7.34,10.66-10.34l-181.55-104.84Z"/>
      </g>
    </g>
  </g>
</svg>