<svg width="70" height="75" viewBox="0 0 70 75" fill="none" xmlns="http://www.w3.org/2000/svg">
<path d="M40.8726 37.6619C40.8726 34.3387 38.278 31.6443 35.0769 31.6443C31.8763 31.6443 29.2812 34.3387 29.2812 37.6619C29.2812 40.9855 31.8763 43.6797 35.0769 43.6797C38.278 43.6797 40.8726 40.9855 40.8726 37.6619Z" fill="#53C1DE"/>
<path fill-rule="evenodd" clip-rule="evenodd" d="M53.8999 26.4899C55.1238 21.326 56.6622 11.7501 51.2388 8.50352C45.8408 5.27113 38.8162 11.465 35.107 15.1828C31.4086 11.502 24.1867 5.33466 18.7679 8.59151C13.372 11.8347 15.036 21.2519 16.287 26.4482C11.2536 27.9326 2.625 31.1297 2.625 37.6619C2.625 44.1755 11.2446 47.6539 16.2483 49.1369C14.9926 54.3619 13.4119 63.6445 18.8148 66.8806C24.2538 70.1368 31.4531 64.1162 35.1968 60.3577C38.9298 64.0975 45.8869 70.1575 51.286 66.9124C56.702 63.6571 55.2914 54.2095 54.0403 48.983C58.8908 47.4968 67.5288 44.0942 67.5288 37.6619C67.5288 31.1925 58.854 27.9694 53.8999 26.4899ZM53.285 46.2133C52.4636 43.5134 51.3548 40.6422 49.9985 37.6762C51.2931 34.7803 52.3589 31.9462 53.1574 29.2636C56.7892 30.3568 64.7564 32.8555 64.7564 37.6619C64.7564 42.5134 57.1109 45.0357 53.285 46.2133ZM49.8966 64.4209C45.8683 66.8419 39.8843 61.0467 37.1274 58.2928C38.9564 56.2158 40.7841 53.8013 42.5679 51.12C45.7058 50.8311 48.67 50.3585 51.3583 49.7133C52.2388 53.4102 53.9427 61.989 49.8966 64.4209ZM20.2001 64.3864C16.1714 61.9744 18.0128 53.691 18.9366 49.8421C21.595 50.4528 24.5378 50.8921 27.6831 51.1569C29.4785 53.7804 31.3592 56.1919 33.2544 58.3039C30.9129 60.6557 24.2477 66.8095 20.2001 64.3864ZM5.39745 37.6619C5.39745 32.7922 13.317 30.3117 17.0316 29.2212C17.8439 31.964 18.9093 34.8319 20.195 37.7321C18.8926 40.6753 17.812 43.5887 16.9922 46.3639C13.4503 45.3112 5.39745 42.5345 5.39745 37.6619ZM20.157 11.083C24.2023 8.65179 30.4789 14.5727 33.1642 17.2377C31.2787 19.34 29.4154 21.7333 27.6353 24.3418C24.5828 24.6356 21.6608 25.1073 18.9745 25.7393C17.9666 21.5483 16.1162 13.5115 20.157 11.083ZM44.5514 27.4708C46.6222 27.7421 48.6063 28.1031 50.4693 28.5447C49.91 30.406 49.213 32.3523 48.3919 34.3475C47.2018 32.0029 45.9243 29.7054 44.5514 27.4708ZM35.1079 19.2949C36.3867 20.7334 37.6674 22.3396 38.9275 24.0823C36.3718 23.9568 33.8119 23.9563 31.2562 24.0805C32.5173 22.354 33.8091 20.7501 35.1079 19.2949ZM21.7857 34.3454C20.9783 32.3572 20.2875 30.4023 19.7233 28.5143C21.5751 28.0841 23.55 27.7324 25.6075 27.4655C24.2306 29.6952 22.9553 31.9918 21.7857 34.3454ZM25.6665 48.0638C23.5411 47.8175 21.5364 47.4836 19.6851 47.0652C20.2582 45.1441 20.9642 43.1471 21.7889 41.116C22.9745 43.4941 24.2694 45.813 25.6665 48.0638ZM35.1847 56.2322C33.8706 54.7599 32.5597 53.1315 31.2796 51.38C33.8498 51.4847 36.425 51.4849 38.995 51.3659C37.7311 53.1493 36.4548 54.7801 35.1847 56.2322ZM48.4183 41.0126C49.2859 43.0658 50.0171 45.0519 50.598 46.9406C48.716 47.3866 46.6843 47.7457 44.5436 48.0123C45.9267 45.7354 47.2245 43.4022 48.4183 41.0126ZM41.0206 48.3612C37.0892 48.6529 33.1333 48.6497 29.2005 48.3851C26.9659 44.9959 24.9766 41.4315 23.2594 37.7312C24.9684 34.0384 26.9432 30.481 29.1672 27.0971C33.1028 26.7883 37.0625 26.7874 40.9981 27.099C43.2031 30.4827 45.1749 34.0308 46.9234 37.6901C45.1956 41.381 43.2105 44.9456 41.0206 48.3612ZM49.854 10.9974C53.9003 13.4206 52.0993 22.0268 51.2153 25.7692C48.5226 25.1239 45.5985 24.6439 42.5372 24.3455C40.7536 21.7089 38.9058 19.3113 37.0509 17.2362C39.7705 14.5138 45.8468 8.59788 49.854 10.9974Z" fill="#53C1DE"/>
</svg>
